#!OML:ASF H:\GeneralSubjects\Female5\Project 1\Capture day 1\Session 1\Female5.ASF
:FULLY-SPECIFIED
:DEGREES
586
root -8.68833 15.622 -5.02297 -702.994 -30.676 -14.8841
lowerback 14.7116 -0.417126 -0.632136
upperback -11.7253 1.1122 10.9807
thorax -22.7645 1.93913 13.2751
lowerneck -10.9416 -0.792004 -8.0055
upperneck 47.7298 2.71963 -5.89604
head 21.2701 -1.62717 -1.28751
rclavicle 3.22031e-014 1.39944e-013
rhumerus -37.1067 46.886 -77.5904
rradius 36.7202
rwrist -13.9534
rhand -26.674 -20.801
rfingers 7.12502
rthumb -0.105206 -50.7807
lclavicle 3.22031e-014 1.39944e-013
lhumerus -69.7404 18.9354 71.6951
lradius 33.7685
lwrist -2.88971
lhand -20.3815 28.3119
lfingers 7.12502
lthumb 5.97155 58.2078
rfemur 13.7964 11.1023 45.6877
rtibia 0.524727
rfoot -15.7364 -15.8867
rtoes -25.0094
lfemur -43.5002 -20.3172 -0.758782
ltibia 12.1519
lfoot -28.4877 4.67635
ltoes -44.014
587
root -8.88346 15.5777 -4.71802 -703.226 -30.9062 -14.7203
lowerback 14.4274 -0.389658 -0.76822
upperback -11.7641 1.08996 10.9262
thorax -22.6113 1.93435 13.284
lowerneck -10.9027 -0.867121 -7.7348
upperneck 47.6639 2.50815 -5.92916
head 21.1996 -1.6598 -1.38887
rclavicle 3.73715e-014 9.22361e-014
rhumerus -37.588 46.8891 -78.4701
rradius 37.8987
rwrist -14.5396
rhand -26.8035 -20.378
rfingers 7.12502
rthumb -0.230255 -50.3576
lclavicle 3.73715e-014 9.22361e-014
lhumerus -70.0756 19.0664 71.5965
lradius 33.0259
lwrist -3.67437
lhand -19.7927 28.2694
lfingers 7.12502
lthumb 6.53994 58.1485
rfemur 14.6171 10.6795 45.4488
rtibia 1.91514
rfoot -15.3465 -15.1536
rtoes -26.9672
lfemur -42.463 -19.4806 -2.60872
ltibia 14.5682
lfoot -25.8644 1.81707
ltoes -42.6523
588
root -9.07905 15.5368 -4.39668 -703.473 -31.0014 -14.584
lowerback 14.0731 -0.382461 -0.744144
upperback -11.8079 1.07808 10.8808
thorax -22.4115 1.90363 13.1951
lowerneck -10.8971 -0.959533 -7.57646
upperneck 47.561 2.29698 -5.92056
head 21.1107 -1.70539 -1.44484
rclavicle 1.11319e-014 -5.725e-014
rhumerus -38.4446 47.025 -79.474
rradius 39.0745
rwrist -15.1484
rhand -26.8381 -19.7203
rfingers 7.12502
rthumb -0.263697 -49.6998
lclavicle 1.11319e-014 -5.725e-014
lhumerus -70.3058 19.2337 71.3594
lradius 32.0831
lwrist -4.46485
lhand -19.1194 27.9157
lfingers 7.12502
lthumb 7.18986 57.7736
rfemur 15.2854 10.254 45.2004
rtibia 3.60074
rfoot -14.8435 -14.478
rtoes -28.88
lfemur -41.38 -19.576 -3.76126
ltibia 15.65
lfoot -22.7504 2.0643
ltoes -37.8311
589
root -9.2765 15.5024 -4.06766 -703.839 -31.0198 -14.289
lowerback 13.7529 -0.407764 -0.817041
upperback -11.857 0.994918 10.8095
thorax -22.2254 1.85694 13.1604
lowerneck -10.9494 -1.01042 -7.73808
upperneck 47.598 2.10543 -5.55133
head 21.136 -1.76254 -1.26039
rclavicle -8.54774e-014 8.11041e-014
rhumerus -39.74 47.3616 -80.7077
rradius 40.2419
rwrist -15.7195
rhand -26.9184 -19.1731
rfingers 7.12502
rthumb -0.341272 -49.1526
lclavicle -8.54774e-014 8.11041e-014
lhumerus -70.525 19.4536 70.8351
lradius 31.0047
lwrist -5.12794
lhand -18.6361 28.0543
lfingers 7.12502
lthumb 7.65643 57.8957
rfemur 15.8585 10.0975 44.9124
rtibia 5.64673
rfoot -14.1278 -14.1412
rtoes -29.9429
lfemur -40.2822 -20.3113 -4.51446
ltibia 14.794
lfoot -21.6726 5.48297
ltoes -34.5888
590
root -9.47229 15.4789 -3.73784 -704.436 -30.9527 -13.6138
lowerback 13.5621 -0.504044 -1.13163
upperback -11.9333 0.743146 10.6167
thorax -22.1185 1.76903 13.1874
lowerneck -10.7679 -1.16193 -7.21092
upperneck 47.4244 1.80855 -5.91572
head 20.9477 -1.82012 -1.58861
rclavicle -1.26825e-013 3.49861e-014
rhumerus -41.2134 47.4581 -82.1308
rradius 41.1924
rwrist -15.8412
rhand -27.1874 -19.0631
rfingers 7.12502
rthumb -0.601045 -49.042
lclavicle -1.26825e-013 3.49861e-014
lhumerus -70.7535 19.6825 70.057
lradius 29.8798
lwrist -5.75277
lhand -18.5401 28.5683
lfingers 7.12502
lthumb 7.74909 58.4063
rfemur 16.2175 9.57711 44.2057
rtibia 7.98786
rfoot -12.7835 -13.8012
rtoes -30.5978
lfemur -39.3416 -20.0865 -6.32731
ltibia 16.4556
lfoot -21.485 6.97552
ltoes -33.5437
591
root -9.6658 15.4711 -3.4092 -705.231 -30.7842 -12.5397
lowerback 13.4354 -0.651558 -1.7065
upperback -12.0403 0.341179 10.2929
thorax -22.0517 1.64664 13.2644
lowerneck -11.0239 -1.06562 -7.56712
upperneck 47.8203 1.79712 -5.20125
head 21.3075 -1.81771 -1.18391
rclavicle -3.93594e-014 9.38264e-014
rhumerus -42.7884 47.2448 -83.6123
rradius 41.9129
rwrist -15.693
rhand -27.3998 -18.8902
rfingers 7.12502
rthumb -0.806227 -48.8684
lclavicle -3.93594e-014 9.38264e-014
lhumerus -70.9303 19.9991 69.0409
lradius 28.7292
lwrist -6.85075
lhand -18.6531 28.8872
lfingers 7.12502
lthumb 7.64001 58.7292
rfemur 16.0862 8.18926 42.7685
rtibia 10.6376
rfoot -10.5011 -12.9801
rtoes -30.5927
lfemur -38.7467 -19.821 -8.28889
ltibia 18.9631
lfoot -21.7374 7.06479
ltoes -31.7421
592
root -9.85724 15.4808 -3.08523 -706.172 -30.5688 -11.1658
lowerback 13.3572 -0.780079 -2.56624
upperback -12.1332 -0.106719 9.92815
thorax -21.9868 1.54763 13.4818
lowerneck -10.9582 -1.2759 -7.27723
upperneck 47.7121 1.45197 -5.46406
head 21.2051 -1.92777 -1.43516
rclavicle -9.14409e-015 -8.26944e-014
rhumerus -44.4244 46.9614 -85.0139
rradius 42.4414
rwrist -15.5743
rhand -27.0551 -18.673
rfingers 7.12502
rthumb -0.473314 -48.6523
lclavicle -9.14409e-015 -8.26944e-014
lhumerus -70.9491 20.4217 67.9178
lradius 27.5575
lwrist -8.26827
lhand -18.7156 29.0077
lfingers 7.12502
lthumb 7.57968 58.8519
rfemur 15.3887 6.10862 40.6428
rtibia 14.0308
rfoot -7.56308 -12.0023
rtoes -29.195
lfemur -37.7998 -17.7975 -11.8118
ltibia 20.9711
lfoot -19.323 5.91245
ltoes -26.7415
593
root -10.0405 15.5045 -2.76884 -707.302 -30.3444 -9.65731
lowerback 13.4949 -0.861437 -3.53502
upperback -12.1614 -0.512653 9.55337
thorax -21.9908 1.48895 13.7472
lowerneck -10.9082 -1.42685 -7.28098
upperneck 47.6737 1.22609 -5.54184
head 21.161 -2.02432 -1.51646
rclavicle -4.57205e-014 3.18055e-015
rhumerus -46.0405 46.5963 -86.2981
rradius 42.7397
rwrist -15.5583
rhand -26.5608 -18.4973
rfingers 7.12502
rthumb 0.00411466 -48.4771
lclavicle -4.57205e-014 3.18055e-015
lhumerus -70.8428 20.9166 66.7462
lradius 26.6496
lwrist -9.79735
lhand -18.6485 28.9959
lfingers 7.12502
lthumb 7.64444 58.8377
rfemur 14.3457 3.61334 38.046
rtibia 18.064
rfoot -3.69059 -11.4881
rtoes -26.3476
lfemur -36.2744 -16.3398 -14.9599
ltibia 22.0423
lfoot -16.9758 4.30922
ltoes -22.1171
594
root -10.2113 15.5332 -2.46273 -708.393 -30.1347 -8.29639
lowerback 13.7838 -0.92328 -4.32447
upperback -12.1655 -0.848977 9.19378
thorax -22.0813 1.43963 13.9066
lowerneck -10.757 -1.5664 -7.29792
upperneck 47.6666 0.937807 -5.47475
head 21.1022 -2.12905 -1.53012
rclavicle -3.06128e-014 6.36111e-014
rhumerus -47.6941 46.1868 -87.5713
rradius 42.8327
rwrist -15.6142
rhand -26.2892 -18.2076
rfingers 7.12502
rthumb 0.266397 -48.1872
lclavicle -3.06128e-014 6.36111e-014
lhumerus -70.5574 21.251 65.8621
lradius 26.179
lwrist -11.0164
lhand -18.5514 29.0972
lfingers 7.12502
lthumb 7.73813 58.9356
rfemur 12.9635 1.207 35.4709
rtibia 22.5531
rfoot 0.944406 -12.0284
rtoes -22.1058
lfemur -34.352 -15.6918 -17.5112
ltibia 22.3668
lfoot -15.7788 2.65569
ltoes -19.9464
595
root -10.3693 15.5629 -2.16725 -709.184 -30.0002 -7.31897
lowerback 14.0473 -0.984246 -4.73416
upperback -12.158 -1.08374 8.90998
thorax -22.1678 1.37839 13.8899
lowerneck -10.6605 -1.64462 -7.24408
upperneck 47.6821 0.724106 -5.38316
head 21.0761 -2.19015 -1.53168
rclavicle 9.14409e-015 1.74931e-014
rhumerus -49.2703 45.754 -88.8171
rradius 42.746
rwrist -15.5044
rhand -25.9843 -18.1852
rfingers 7.12502
rthumb 0.560921 -48.1642
lclavicle 9.14409e-015 1.74931e-014
lhumerus -69.8867 21.2265 65.7259
lradius 25.9544
lwrist -11.4582
lhand -19.082 29.5656
lfingers 7.12502
lthumb 7.22604 59.4222
rfemur 11.1051 -0.844498 33.3692
rtibia 27.5519
rfoot 4.91895 -13.682
rtoes -15.3969
lfemur -32.3587 -15.6676 -19.3735
ltibia 22.2128
lfoot -15.3379 1.20659
ltoes -18.3921
596
root -10.5241 15.624 -1.87355 -710.797 -29.7746 -6.2584
lowerback 15.0885 -1.05684 -5.21293
upperback -11.875 -1.36626 8.61561
thorax -22.3975 1.31478 13.9413
lowerneck -10.583 -1.70958 -7.20304
upperneck 47.6612 0.586629 -5.39724
head 21.0331 -2.2375 -1.5699
rclavicle 6.20208e-014 -9.70069e-014
rhumerus -50.6735 45.3837 -89.9215
rradius 42.5273
rwrist -15.2155
rhand -25.1631 -18.2158
rfingers 7.12502
rthumb 1.35401 -48.1913
lclavicle 6.20208e-014 -9.70069e-014
lhumerus -68.9522 20.9664 66.136
lradius 25.9718
lwrist -11.6519
lhand -19.5487 30.0643
lfingers 7.12502
lthumb 6.7755 59.9359
rfemur 10.0702 -2.92741 31.3428
rtibia 32.2647
rfoot 8.73187 -15.8641
rtoes -14.3753
lfemur -28.9584 -15.8607 -21.4283
ltibia 21.2717
lfoot -15.0081 -0.179964
ltoes -16.2557
